# 3ds Max Wavefront OBJ Exporter v0.97b - (c)2007 guruware
# File Created: 08.09.2011 08:39:21

mtllib f_stripe.mtl

#
# object WhiteStripe
#

v  -0.0852 0.0445 0.2620
v  -0.1624 0.0445 0.2227
v  -0.1624 -0.0451 0.2227
v  -0.0852 -0.0451 0.2620
v  -0.0840 0.0947 0.2582
v  -0.1600 0.0947 0.2194
v  -0.1530 0.1027 0.2098
v  -0.0803 0.1027 0.2469
v  -0.0718 0.1081 0.2207
v  -0.1369 0.1081 0.1876
v  -0.0525 0.1008 0.1613
v  -0.1002 0.1008 0.1370
v  -0.1600 -0.0953 0.2194
v  -0.0840 -0.0953 0.2582
v  -0.1369 -0.1087 0.1876
v  -0.0718 -0.1087 0.2207
v  -0.0803 -0.1033 0.2469
v  -0.1530 -0.1033 0.2098
v  -0.1002 -0.1014 0.1370
v  -0.0525 -0.1014 0.1613
# 20 vertices

vn -0.4537 0.0424 0.8902
vn -0.4532 0.0434 0.8904
vn -0.4532 -0.0434 0.8904
vn -0.4537 -0.0424 0.8902
vn -0.4537 0.0424 0.8902
vn -0.3943 0.4992 0.7716
vn -0.3936 0.4987 0.7723
vn -0.4532 0.0434 0.8904
vn -0.1732 0.9243 0.3401
vn -0.1727 0.9251 0.3382
vn -0.0230 0.9987 0.0451
vn -0.0231 0.9987 0.0456
vn -0.0231 0.9987 0.0456
vn -0.0230 0.9987 0.0451
vn 0.0494 0.9940 -0.0971
vn 0.0494 0.9941 -0.0970
vn -0.4537 -0.0424 0.8902
vn -0.4532 -0.0434 0.8904
vn -0.3936 -0.4987 0.7723
vn -0.3943 -0.4992 0.7716
vn -0.0232 -0.9987 0.0455
vn -0.0229 -0.9987 0.0451
vn -0.1726 -0.9251 0.3383
vn -0.1733 -0.9243 0.3401
vn -0.0229 -0.9987 0.0451
vn -0.0232 -0.9987 0.0455
vn 0.0494 -0.9940 -0.0971
vn 0.0495 -0.9940 -0.0971
vn -0.3936 0.4987 0.7723
vn -0.3943 0.4992 0.7716
vn -0.1727 0.9251 0.3382
vn -0.1732 0.9243 0.3401
vn -0.3936 -0.4987 0.7723
vn -0.1733 -0.9243 0.3401
vn -0.1726 -0.9251 0.3383
vn -0.3943 -0.4992 0.7716
# 36 vertex normals

vt 0.6110 0.5013 0.9990
vt 0.6108 1.0000 0.9990
vt 0.3868 1.0000 0.9990
vt 0.3837 0.5013 0.9990
vt 0.7508 0.5002 0.9663
vt 0.7583 1.0010 0.9657
vt 0.7927 1.0000 0.9415
vt 0.7832 0.5014 0.9415
vt 0.8697 0.5014 0.8424
vt 0.8784 1.0000 0.8424
vt 0.9798 0.5014 0.7246
vt 0.9812 1.0000 0.7246
vt 0.2400 1.0032 0.9658
vt 0.2440 0.5024 0.9664
vt 0.1192 1.0000 0.8424
vt 0.1250 0.5014 0.8424
vt 0.2115 0.5014 0.9415
vt 0.2050 1.0000 0.9415
vt 0.0161 1.0000 0.7246
vt 0.0146 0.5014 0.7246
# 20 texture coords

g WhiteStripe
usemtl default
s 1
f 1/1/1 2/2/2 3/3/3 4/4/4 
f 1/1/5 5/5/6 6/6/7 2/2/8 
f 7/7/9 8/8/10 9/9/11 10/10/12 
f 10/10/13 9/9/14 11/11/15 12/12/16 
f 4/4/17 3/3/18 13/13/19 14/14/20 
f 15/15/21 16/16/22 17/17/23 18/18/24 
f 16/16/25 15/15/26 19/19/27 20/20/28 
f 6/6/29 5/5/30 8/8/31 7/7/32 
f 13/13/33 18/18/34 17/17/35 14/14/36 
# 9 polygons

